<?xml version="1.0" encoding="UTF-8"?>
<svg width="374px" height="273px" viewBox="0 0 374 273" version="1.1" xmlns="http://www.w3.org/2000/svg" xmlns:xlink="http://www.w3.org/1999/xlink">
    <title>noun-elephant-7525272</title>
    <g id="Page-1" stroke="none" stroke-width="1" fill="none" fill-rule="evenodd">
        <g id="GoldenCanonGrid-1920" transform="translate(-1508.000000, -442.000000)" fill="#393939" fill-rule="nonzero">
            <g id="noun-elephant-7525272" transform="translate(1508.000000, 442.000000)">
                <path d="M228.84723,37.0184183 C228.84723,37.0184183 237.018752,22.3775783 257.076124,26.3479756 C277.133496,30.3183729 297.190868,32.7998712 315.019643,42.9740142 C332.848419,53.1481573 348.448597,30.5665227 344.486647,22.1294284 C340.524697,13.6923342 327.648359,10.7145362 301.895684,22.1294284 C301.895684,22.1294284 283.076421,27.5887247 294.467027,5.25523993 C294.467027,5.25523993 297.190868,4.75894027 298.428977,10.0943602 C299.667087,15.42978 307.838609,9.59806049 309.447953,8.10916151 C311.057297,6.62026252 362.965974,-19.7145887 369.249627,31.3113692 C372.592522,58.4839742 347.087271,74.1162225 347.087271,74.1162225 C347.087271,74.1162225 362.316215,72.9995482 370.920778,63.817806 C379.525341,54.6360637 369.620783,78.768734 347.149077,85.1586914 C324.677293,91.5486489 313.286686,87.3920399 313.286686,87.3920399 L308.272442,87.0198152 C308.272442,87.0198152 315.144049,94.2161603 310.191532,96.0151473 C305.239094,97.8142137 304.620238,93.7197415 295.272413,97.876271 C285.924588,102.03288 285.568804,95.3792485 276.468601,104.62277 C276.468601,104.62277 272.367191,95.5031646 274.286439,89.2374806 C277.304335,79.3889101 272.274521,69.4474323 268.142246,66.8110885 C268.142246,66.8110885 274.905295,76.7370817 271.005389,88.9583617 C271.005389,88.9583617 269.039905,95.5964689 273.094684,108.74841 C277.149344,121.900351 247.759994,119.728941 233.815515,108.670864 C227.269185,103.459718 197.244735,103.087691 198.637757,88.6016969 C200.448487,69.835217 212.674946,53.0543329 212.674946,53.0543329 C212.674946,53.0543329 193.932941,72.4719579 194.923428,91.331345 C195.759162,107.383661 221.728398,105.755004 230.209348,112.424081 C237.684359,118.302254 244.13798,119.310338 255.126448,122.442981 C255.126448,122.442981 233.320271,145.195343 230.998965,162.238273 C228.6775,179.283189 255.265909,204.423745 251.954115,218.661589 C248.657653,232.899037 235.611071,237.520976 234.620583,251.57261 C233.630096,265.639727 223.725221,257.372963 223.725221,257.372963 C223.725221,257.372963 198.127457,238.358333 214.810833,231.069081 C231.494208,223.779828 228.569497,207.262182 212.427482,202.78 C198.746472,198.980211 185.034163,190.217266 187.077341,175.638761 C187.077341,175.638761 179.354708,196.374955 210.647774,205.959494 C210.647774,205.959494 201.11453,240.73144 205.323706,252.643426 C209.532881,264.555412 220.799875,259.219198 214.238093,269.021315 L181.552005,269.021315 C181.552005,269.021315 176.475955,266.043517 177.094812,261.824969 C177.713668,257.606422 183.53298,252.395276 184.028224,246.93598 C184.523468,241.476683 189.228284,188.868919 173.875727,175.714993 C173.875727,175.714993 134.256227,196.559579 108.998795,193.085481 C108.998795,193.085481 102.560626,197.800328 105.779711,214.426367 C108.998795,231.052405 117.665561,242.715447 127.570436,250.408092 C137.475311,258.100737 132.770495,263.063733 125.837083,265.793382 C118.90367,268.52303 94.8843479,275.719375 89.4366665,256.115538 C83.9889852,236.511701 86.1556965,210.209805 65.9125881,189.115084 C52.9126376,175.55975 41.3980221,162.066752 38.1789377,149.659261 C38.1789377,149.659261 35.8729639,164.7964 63.6067331,192.464114 C63.6067331,192.464114 57.3698314,198.66786 47.9602,202.886407 C38.5505686,207.120438 23.8168687,237.518991 36.4459807,261.838866 C36.4459807,261.838866 42.1412839,270.27596 33.5983291,271.640983 C25.0553743,273.006005 -3.79257456,276.852129 0.416997381,259.977941 C4.62656932,243.103752 23.0745974,196.824801 19.359873,181.189377 C19.359873,181.189377 13.4169479,207.989558 1.28347586,212.208106 C1.28347586,212.208106 4.00731652,201.537663 4.00731652,194.093168 C4.00731652,186.648673 10.4454854,183.174575 14.1598135,177.467129 C17.8741417,171.759683 23.0742012,130.814961 23.3218231,118.657604 C23.5694449,106.500248 40.9802345,58.5140262 102.06558,53.8924837 C163.150926,49.2550597 156.542394,71.4182144 228.847982,37.0182952 L228.84723,37.0184183 Z" id="Path"></path>
            </g>
        </g>
    </g>
</svg>